<svg xmlns="http://www.w3.org/2000/svg" viewBox="0 0 800 500" width="800" height="500">
  <defs>
    <linearGradient id="g3" x1="0" y1="0" x2="1" y2="1">
      <stop offset="0" stop-color="#142850"/>
      <stop offset="1" stop-color="#1c3468"/>
    </linearGradient>
  </defs>
  <rect width="800" height="500" fill="url(#g3)"/>
  <g opacity="0.12" stroke="#ffffff" stroke-width="1">
    <path d="M0 62.5H800M0 125H800M0 187.5H800M0 250H800M0 312.5H800M0 375H800M0 437.5H800"/>
    <path d="M66.6 0V500M133.3 0V500M200 0V500M266.6 0V500M333.3 0V500M400 0V500M466.6 0V500M533.3 0V500M600 0V500M666.6 0V500M733.3 0V500"/>
  </g>
  <g fill="none" stroke="#d4af37" stroke-width="6" stroke-linecap="round" stroke-linejoin="round">
    <path d="M140 400 L280 300 L400 340 L560 180 L660 220"/>
  </g>
  <g fill="#f0d78c">
    <circle cx="140" cy="400" r="9"/>
    <circle cx="280" cy="300" r="9"/>
    <circle cx="400" cy="340" r="9"/>
    <circle cx="560" cy="180" r="9"/>
    <circle cx="660" cy="220" r="9"/>
  </g>
  <path d="M660 220 L640 205 M660 220 L648 240" fill="none" stroke="#d4af37" stroke-width="6" stroke-linecap="round"/>
  <g transform="translate(560,180)">
    <path d="M0 -70 L18 -30 L60 -26 L28 0 L38 42 L0 18 L-38 42 L-28 0 L-60 -26 L-18 -30 Z" fill="#d4af37" opacity="0.9"/>
  </g>
  <rect x="90" y="60" width="240" height="46" rx="6" fill="#0f1c3d" stroke="#d4af37" stroke-width="1.5"/>
  <text x="210" y="89" font-size="20" text-anchor="middle" fill="#f0d78c" font-family="Arial, sans-serif" font-weight="bold">الاحترافية في سوق العمل</text>
  <g fill="#ffffff" opacity="0.9">
    <circle cx="600" cy="380" r="46" fill="#0f1c3d" stroke="#d4af37" stroke-width="3"/>
    <path d="M582 380 L596 394 L620 364" fill="none" stroke="#d4af37" stroke-width="6" stroke-linecap="round" stroke-linejoin="round"/>
  </g>
</svg>
